<?xml version="1.0" encoding="UTF-8" standalone="no"?>
<svg
   viewBox="0 0 24.8 24.8"
   version="1.1"
   id="svg19"
   sodipodi:docname="contact-logo.svg"
   width="24.799999"
   height="24.799999"
   inkscape:version="1.3.2 (091e20ef0f, 2023-11-25)"
   xmlns:inkscape="http://www.inkscape.org/namespaces/inkscape"
   xmlns:sodipodi="http://sodipodi.sourceforge.net/DTD/sodipodi-0.dtd"
   xmlns="http://www.w3.org/2000/svg"
   xmlns:svg="http://www.w3.org/2000/svg"
   xmlns:rdf="http://www.w3.org/1999/02/22-rdf-syntax-ns#"
   xmlns:cc="http://creativecommons.org/ns#"
   xmlns:dc="http://purl.org/dc/elements/1.1/">
  <defs
     id="defs19" />
  <sodipodi:namedview
     id="namedview19"
     pagecolor="#ffffff"
     bordercolor="#000000"
     borderopacity="0.25"
     inkscape:showpageshadow="2"
     inkscape:pageopacity="0.0"
     inkscape:pagecheckerboard="0"
     inkscape:deskcolor="#d1d1d1"
     inkscape:zoom="21.481882"
     inkscape:cx="44.59572"
     inkscape:cy="14.221286"
     inkscape:window-width="3440"
     inkscape:window-height="1408"
     inkscape:window-x="0"
     inkscape:window-y="0"
     inkscape:window-maximized="1"
     inkscape:current-layer="svg19" />
  <title
     id="title1">Element 1</title>
  <path
     d="M 6.79,17.36 H 2.48 V 7.44 H 0 V 24.8 H 17.36 V 22.32 H 7.44 V 17.88 A 7.17,7.17 0 0 1 6.79,17.37 Z"
     style="fill:#27afd4"
     id="path16" />
  <path
     d="m 14.94,5 h 4.9 V 0 H 2.48 V 17.36 H 6.79 A 7.34,7.34 0 0 1 4.34,11.78 7.33,7.33 0 0 1 11.88,4.34 7.31,7.31 0 0 1 14.94,5 Z"
     style="fill:#003254"
     id="path17" />
  <path
     d="M 14.94,5 A 6.83,6.83 0 0 1 18,7.88 l -3.63,1.81 a 2.85,2.85 0 0 0 -2.49,-1.46 3.3,3.3 0 0 0 -3.26,3.55 3.3,3.3 0 0 0 3.26,3.55 2.79,2.79 0 0 0 2.49,-1.46 l 3.63,1.8 a 6.78,6.78 0 0 1 -6.15,3.55 7.72,7.72 0 0 1 -4.44,-1.35 v 4.45 H 24.8 V 5 Z"
     style="fill:#0080c5"
     id="path18" />
  <path
     d="M 18,7.88 A 6.72,6.72 0 0 0 11.84,4.34 7.33,7.33 0 0 0 4.3,11.78 7.33,7.33 0 0 0 11.84,19.22 6.78,6.78 0 0 0 18,15.67 l -3.66,-1.8 a 2.79,2.79 0 0 1 -2.49,1.46 3.3,3.3 0 0 1 -3.26,-3.55 3.3,3.3 0 0 1 3.26,-3.55 2.85,2.85 0 0 1 2.49,1.46 z"
     style="fill:#ffffff"
     id="path19" />
  <metadata
     id="metadata19">
    <rdf:RDF>
      <cc:Work
         rdf:about="">
        <dc:title>Element 1</dc:title>
      </cc:Work>
    </rdf:RDF>
  </metadata>
</svg>
